<?xml version="1.0" standalone="no"?><!DOCTYPE svg PUBLIC "-//W3C//DTD SVG 1.1//EN" "http://www.w3.org/Graphics/SVG/1.1/DTD/svg11.dtd">
<svg t="1512699543213" class="icon" style="" viewBox="0 0 1024 1024" version="1.1" xmlns="http://www.w3.org/2000/svg" p-id="2541" xmlns:xlink="http://www.w3.org/1999/xlink" width="200" height="200"><path d="M692.464035 430.394973 642.586065 430.394973C642.586065 462.488529 631.206726 489.915811 608.446883 512.675654 585.688204 535.434333 558.262086 546.813673 526.167366 546.813673 515.655727 546.813673 505.44384 545.356986 495.529332 542.444823 485.614871 539.53266 476.428753 535.593565 467.972096 530.626374 459.514275 525.659183 451.784797 519.676788 444.783663 512.675654 437.781364 505.673309 431.797807 497.943878 426.831779 489.486057 421.865751 481.028236 417.925492 471.693405 415.013329 461.481519 412.101167 451.268422 410.64448 440.914851 410.64448 430.423087L360.766511 430.423087C360.766511 476.520076 376.953763 515.756404 409.328361 548.129792 441.702912 580.505553 480.79872 596.691642 526.615878 596.691642 572.432989 596.691642 611.528797 580.505553 643.903395 548.129792 676.277946 515.755241 692.465199 476.520076 692.465199 430.423087L692.465199 430.394973 692.464035 430.394973 692.464035 430.394973ZM1006.630074 602.797009C1006.630074 582.370863 1003.857222 562.385036 998.312774 542.835945 992.767116 523.289181 984.888925 505.19673 974.675875 488.562176 964.463988 471.926412 952.206429 456.757853 937.904361 443.053009 923.602339 429.349329 907.705437 417.828305 890.211375 408.493428 889.035729 343.147148 872.110778 283.047889 839.437591 228.19449 806.764451 173.339974 762.710807 129.876433 707.278988 97.800471 651.845958 65.724509 591.456303 49.677777 526.110022 49.65902 501.596067 49.65902 477.530624 52.142639 453.9136 57.10862 430.294295 62.074647 407.684329 69.075782 386.0837 78.113233 364.480791 87.149475 343.916451 98.239581 324.387281 111.384716 304.859276 124.528687 287.065414 139.117615 271.01049 155.157364 254.953146 171.194787 240.222534 188.848081 226.816279 208.114967 213.411188 227.383017 202.031849 247.659287 192.67826 268.943732 183.324672 290.228177 176.03314 312.688268 170.804829 336.325167 165.577681 359.962065 162.954752 384.028672 162.936041 408.523916 127.350691 427.772044 99.055756 454.760215 78.051188 489.488384 57.047738 524.214225 46.545455 561.993914 46.545455 602.826287 46.545455 653.590668 62.00441 698.810601 92.922275 738.484922 123.840186 778.158033 163.515625 804.419025 211.94752 817.264407L162.067177 977.427596 211.945146 977.427596 228.579747 927.549626 273.221213 777.887558 272.352396 777.887558C271.175587 778.465978 270.298531 778.755212 269.7189 778.755212 221.867846 778.755212 181.024954 761.690903 147.19488 727.56224 113.364806 693.432413 96.439855 652.440809 96.421097 604.588591 96.421097 576.582842 102.693888 550.47289 115.240681 526.257524 127.788637 502.042205 144.851782 481.765935 166.434816 465.429969 175.769693 531.354717 201.152465 590.137809 242.582016 641.780457 284.01273 693.423057 335.354461 730.912349 396.61177 754.250659L343.234979 927.549626 327.466868 976.558778 377.344884 976.558778 393.980649 927.549626 464.863232 722.744925C392.51577 708.164189 332.274828 671.988736 284.142732 614.22201 236.010636 556.456448 211.945146 489.943878 211.945146 414.683136 211.945146 357.496041 225.947462 304.695343 253.953164 256.283369 281.958912 207.871395 320.1765 169.651433 368.608396 141.628137 417.040244 113.603677 469.549382 99.601408 526.139299 99.619002 560.567715 99.619002 593.828678 104.874217 625.923351 115.385903 658.018071 125.898705 686.900829 140.918551 712.572835 160.447721 738.244887 179.976937 760.704931 202.586903 779.954269 228.277667 799.204771 253.96722 814.224617 282.849978 825.016134 314.92594 835.808815 347.001903 841.203433 380.262912 841.203433 414.710039 841.203433 489.970828 817.13678 556.483398 769.004684 614.250124 720.872588 672.016849 660.343575 708.189975 587.416529 722.773039L659.19488 927.57774 675.829481 976.585681 724.837423 976.585681 709.966289 927.57774 656.588335 754.278772C717.26606 730.941626 768.461359 693.450007 810.170787 641.808524 851.880169 590.164759 877.403462 531.382831 886.737175 465.456873 908.320209 481.792884 925.385681 502.069155 937.931311 526.285638 950.478103 550.501004 956.750895 576.610956 956.750895 604.616657 956.750895 652.468922 939.82706 693.459363 905.977111 727.588026 872.127162 761.719017 831.286598 778.782161 783.453091 778.782161 782.874624 778.782161 782.286801 778.491764 781.68846 777.914461L779.923828 777.914461 824.564131 927.576576 841.201059 977.454545 891.077911 977.454545 841.201059 817.288983C889.631744 804.444812 929.306065 778.184983 960.22393 738.510662 991.143005 698.83406 1006.601961 653.616454 1006.601961 602.850863L1006.630074 602.797009 1006.630074 602.797009Z" fill="#BFC3C4" p-id="2542"></path></svg>