<?xml version="1.0" encoding="utf-8"?>
<!-- Generator: Adobe Illustrator 16.0.0, SVG Export Plug-In . SVG Version: 6.00 Build 0)  -->
<!DOCTYPE svg PUBLIC "-//W3C//DTD SVG 1.1//EN" "http://www.w3.org/Graphics/SVG/1.1/DTD/svg11.dtd">
<svg version="1.1" id="图层_1" xmlns="http://www.w3.org/2000/svg" xmlns:xlink="http://www.w3.org/1999/xlink" x="0px" y="0px"
	 width="26px" height="26px" viewBox="0 0 26 26" enable-background="new 0 0 26 26" xml:space="preserve">
<g>
	<g>
		<path fill-rule="evenodd" clip-rule="evenodd" fill="#626262" d="M20,5h-1V4.5C19,3.672,18.328,3,17.5,3S16,3.672,16,4.5V5h-6V4.5
			C10,3.672,9.329,3,8.5,3S7,3.672,7,4.5V5H6C3.791,5,2,6.791,2,9v10c0,2.209,1.791,4,4,4h14c2.209,0,4-1.791,4-4V9
			C24,6.791,22.209,5,20,5z M17.696,12.708l-4.994,4.994c-0.299,0.299-0.739,0.368-1.106,0.213
			c-0.136-0.051-0.265-0.124-0.374-0.233l-2.92-2.92c-0.403-0.402-0.403-1.057,0-1.46c0.403-0.402,1.057-0.402,1.46,0l2.243,2.243
			l4.265-4.265c0.395-0.394,1.033-0.394,1.427,0C18.09,11.675,18.09,12.313,17.696,12.708z"/>
	</g>
</g>
</svg>
