<?xml version="1.0" encoding="utf-8"?>
<!-- Generator: Adobe Illustrator 16.0.0, SVG Export Plug-In . SVG Version: 6.00 Build 0)  -->
<!DOCTYPE svg PUBLIC "-//W3C//DTD SVG 1.1//EN" "http://www.w3.org/Graphics/SVG/1.1/DTD/svg11.dtd">
<svg version="1.1" id="图层_1" xmlns="http://www.w3.org/2000/svg" xmlns:xlink="http://www.w3.org/1999/xlink" x="0px" y="0px"
	 width="27px" height="26.996px" viewBox="0 0 27 26.996" enable-background="new 0 0 27 26.996" xml:space="preserve">
<g>
	<g>
		<path fill-rule="evenodd" clip-rule="evenodd" fill="#B9B9B9" d="M13.5-0.004C6.044-0.004,0,6.04,0,13.496s6.044,13.5,13.5,13.5
			S27,20.952,27,13.496S20.956-0.004,13.5-0.004z M19.838,17.864c0.54,0.54,0.537,1.419-0.007,1.963s-1.423,0.547-1.963,0.007
			l-4.389-4.389L9.09,19.834c-0.541,0.54-1.419,0.537-1.963-0.007S6.58,18.404,7.12,17.864l4.389-4.389l-4.39-4.391
			c-0.54-0.54-0.537-1.418,0.007-1.962s1.423-0.547,1.962-0.007l4.391,4.391l4.391-4.391c0.54-0.54,1.419-0.537,1.963,0.007
			s0.547,1.422,0.007,1.962l-4.391,4.391L19.838,17.864z"/>
	</g>
</g>
</svg>
