<svg xmlns="http://www.w3.org/2000/svg" width="35" height="30" viewBox="0 0 35 30">
  <defs>
    <style>
      .cls-1, .cls-2 {
        fill: none;
      }

      .cls-2 {
        stroke: #fff;
        stroke-linecap: round;
        stroke-width: 2px;
      }

      .cls-3, .cls-4 {
        stroke: none;
      }

      .cls-4 {
        fill: #fff;
      }
    </style>
  </defs>
  <g id="组_7" data-name="组 7" transform="translate(-173 -243)">
    <g id="多边形_1" data-name="多边形 1" class="cls-1" transform="translate(173 243)">
      <path class="cls-3" d="M14.045,5.923a4,4,0,0,1,6.91,0L31.491,23.985A4,4,0,0,1,28.036,30H6.964a4,4,0,0,1-3.455-6.015Z"/>
      <path class="cls-4" d="M 17.5 5.938535690307617 C 17.15460968017578 5.938535690307617 16.29486083984375 6.035224914550781 15.77243995666504 6.930795669555664 L 5.236589431762695 24.99224472045898 C 4.710100173950195 25.89479446411133 5.056499481201172 26.69427490234375 5.229860305786133 26.99611663818359 C 5.403230667114258 27.29795455932617 5.919269561767578 27.99999618530273 6.964149475097656 27.99999618530273 L 28.03585052490234 27.99999618530273 C 29.08073043823242 27.99999618530273 29.59676933288574 27.29795455932617 29.7701301574707 26.99611663818359 C 29.94350051879883 26.69427490234375 30.28989028930664 25.89479446411133 29.76340103149414 24.99224472045898 L 19.22756004333496 6.930805206298828 C 18.70513916015625 6.035224914550781 17.84539031982422 5.938535690307617 17.5 5.938535690307617 M 17.5 3.938541412353516 C 18.8416805267334 3.938541412353516 20.1833610534668 4.600046157836914 20.95512008666992 5.923055648803711 L 31.49095916748047 23.98450469970703 C 33.04650115966797 26.6511344909668 31.12301063537598 29.99999618530273 28.03585052490234 29.99999618530273 L 6.964149475097656 29.99999618530273 C 3.876979827880859 29.99999618530273 1.953498840332031 26.6511344909668 3.509029388427734 23.98450469970703 L 14.04487991333008 5.923055648803711 C 14.81664085388184 4.600046157836914 16.1583194732666 3.938541412353516 17.5 3.938541412353516 Z"/>
    </g>
    <line id="直线_20" data-name="直线 20" class="cls-2" y2="9" transform="translate(190.5 254.5)"/>
    <line id="直线_21" data-name="直线 21" class="cls-2" transform="translate(190.5 267.5)"/>
  </g>
</svg>
