<?xml version="1.0" encoding="utf-8"?>
<!-- Generator: Adobe Illustrator 16.0.0, SVG Export Plug-In . SVG Version: 6.00 Build 0)  -->
<!DOCTYPE svg PUBLIC "-//W3C//DTD SVG 1.1//EN" "http://www.w3.org/Graphics/SVG/1.1/DTD/svg11.dtd">
<svg version="1.1" id="图层_1" xmlns="http://www.w3.org/2000/svg" xmlns:xlink="http://www.w3.org/1999/xlink" x="0px" y="0px"
	 width="26px" height="26px" viewBox="0 0 26 26" enable-background="new 0 0 26 26" xml:space="preserve">
<g>
	<g>
		<path fill-rule="evenodd" clip-rule="evenodd" fill="#626262" d="M22.997,10.677c0-5.618-4.477-10.172-10-10.172
			s-10,4.554-10,10.172c0,2.013,0.582,3.884,1.574,5.463l-0.025,0.026l6.407,8.582c0.545,0.5,1.259,0.813,2.05,0.813
			s1.505-0.313,2.05-0.813l6.407-8.582l-0.032-0.033C22.417,14.555,22.997,12.687,22.997,10.677z M12.997,13.505
			c-1.657,0-3-1.343-3-3s1.343-3,3-3s3,1.343,3,3S14.654,13.505,12.997,13.505z"/>
	</g>
</g>
</svg>
