<?xml version="1.0" encoding="utf-8"?>
<!-- Generator: Adobe Illustrator 23.0.0, SVG Export Plug-In . SVG Version: 6.00 Build 0)  -->
<svg version="1.1" id="图层_1" xmlns="http://www.w3.org/2000/svg" xmlns:xlink="http://www.w3.org/1999/xlink" x="0px" y="0px"
	 viewBox="0 0 40 38" style="enable-background:new 0 0 40 38;" xml:space="preserve">
<style type="text/css">
	.st0{fill-rule:evenodd;clip-rule:evenodd;fill:#FFFFFF;}
	.st1{fill-rule:evenodd;clip-rule:evenodd;fill:#D9D6D6;}
	.st2{fill-rule:evenodd;clip-rule:evenodd;fill:#27D6AB;}
</style>
<g>
	<g>
		<path class="st0" d="M9.28,22.01c-2.39,2.4-2.39,6.28,0,8.68c2.39,2.4,6.26,2.4,8.65,0l1.08-1.08l-8.65-8.68L9.28,22.01z
			 M31.98,14.42c0.64-6.67-6.49-6.51-6.49-6.51c-0.86-4.48-5.41-3.25-5.41-3.25l-7.57,14.1l8.65,8.68l14.05-7.59
			C36.74,15.91,31.98,14.42,31.98,14.42z"/>
	</g>
</g>
<g>
	<g>
		<path class="st1" d="M24.16,8.56L13.88,22.29l1.21,0.93L25.37,9.49L24.16,8.56z M30.84,14.33L16.85,25.27l0.99,1.17L31.83,15.5
			L30.84,14.33z"/>
	</g>
</g>
<path class="st2" d="M12.52,18.75l8.65,8.68l-2.16,2.17l-8.65-8.68L12.52,18.75z"/>
</svg>
