<?xml version="1.0" encoding="utf-8"?>
<!-- Generator: Adobe Illustrator 23.0.0, SVG Export Plug-In . SVG Version: 6.00 Build 0)  -->
<svg version="1.1" id="图层_1" xmlns="http://www.w3.org/2000/svg" xmlns:xlink="http://www.w3.org/1999/xlink" x="0px" y="0px"
	 viewBox="0 0 40 38" style="enable-background:new 0 0 40 38;" xml:space="preserve">
<style type="text/css">
	.st0{fill-rule:evenodd;clip-rule:evenodd;fill:#8BBCF8;}
	.st1{fill-rule:evenodd;clip-rule:evenodd;fill:#FFFFFF;}
</style>
<path class="st0" d="M20.5,4.5c7.73,0,14,6.27,14,14s-6.27,14-14,14s-14-6.27-14-14S12.77,4.5,20.5,4.5z"/>
<g>
	<g>
		<path class="st1" d="M20.5,4.5c-7.73,0-14,6.27-14,14s6.27,14,14,14s14-6.27,14-14S28.23,4.5,20.5,4.5z M20.5,30.5
			c-6.63,0-12-5.37-12-12c0-6.63,5.37-12,12-12s12,5.37,12,12C32.5,25.13,27.13,30.5,20.5,30.5z M27.5,10.5h-4c-0.55,0-1,0.45-1,1
			s0.45,1,1,1h1.34l-2.15,2.15c-1.05-0.72-2.32-1.15-3.69-1.15c-3.59,0-6.5,2.91-6.5,6.5c0,3.59,2.91,6.5,6.5,6.5s6.5-2.91,6.5-6.5
			c0-1.5-0.51-2.87-1.36-3.97l2.36-2.36v1.83c0,0.55,0.45,1,1,1s1-0.45,1-1v-4C28.5,10.95,28.05,10.5,27.5,10.5z M19,24.5
			c-2.49,0-4.5-2.01-4.5-4.5s2.01-4.5,4.5-4.5s4.5,2.01,4.5,4.5S21.49,24.5,19,24.5z"/>
	</g>
</g>
</svg>
