<svg xmlns="http://www.w3.org/2000/svg" width="51" height="38" viewBox="0 0 51 38">
  <defs>
    <style>
      .cls-1 {
        fill: #9ac3e6;
      }

      .cls-2 {
        fill: #fff;
      }
    </style>
  </defs>
  <g id="资料" transform="translate(0)">
    <rect id="圆角矩形_19" data-name="圆角矩形 19" class="cls-1" width="51" height="38" rx="4"/>
    <path id="椭圆_2" data-name="椭圆 2" class="cls-2" d="M14.051,19.22H1.287A6.123,6.123,0,0,1,4.72,14.1,7.318,7.318,0,0,1,0,7.331,7.515,7.515,0,0,1,7.67,0a7.515,7.515,0,0,1,7.67,7.331,7.317,7.317,0,0,1-4.72,6.768,6.122,6.122,0,0,1,3.433,5.121h0ZM22.1,19.19a1.5,1.5,0,0,1,0-3h9a1.5,1.5,0,1,1,0,3Zm0-7a1.5,1.5,0,0,1,0-3h16a1.5,1.5,0,1,1,0,3Zm0-8a1.5,1.5,0,0,1,0-3h16a1.5,1.5,0,1,1,0,3Z" transform="translate(6.4 9.81)"/>
  </g>
</svg>
