<?xml version="1.0" encoding="utf-8"?>
<!-- Generator: Adobe Illustrator 16.0.0, SVG Export Plug-In . SVG Version: 6.00 Build 0)  -->
<!DOCTYPE svg PUBLIC "-//W3C//DTD SVG 1.1//EN" "http://www.w3.org/Graphics/SVG/1.1/DTD/svg11.dtd">
<svg version="1.1" id="图层_1" xmlns="http://www.w3.org/2000/svg" xmlns:xlink="http://www.w3.org/1999/xlink" x="0px" y="0px"
	 width="72.972px" height="73px" viewBox="0 0 72.972 73" enable-background="new 0 0 72.972 73" xml:space="preserve">
<linearGradient id="SVGID_1_" gradientUnits="userSpaceOnUse" x1="8.9253" y1="60.4473" x2="64.0198" y2="12.5543">
	<stop  offset="0" style="stop-color:#18E4E1"/>
	<stop  offset="1" style="stop-color:#05CD88"/>
</linearGradient>
<circle fill="url(#SVGID_1_)" cx="36.472" cy="36.5" r="36.5"/>
<g>
	<g>
		<path fill="#FFFFFF" d="M19.701,21.843l1.595-1.902c-0.979-0.976-2.169-1.914-3.573-2.816l-1.531,1.76
			C17.722,19.896,18.892,20.882,19.701,21.843z M29.504,32.804c-1.22,0.21-2.637,0.44-4.254,0.689
			c-1.233,0.168-2.155,0.144-2.765-0.074c-0.496-0.208-0.978-0.558-1.446-1.049l-0.212-0.184v-8.382l-4.87,0.839v2.112l2.807-0.483
			v6.05c-0.836,0.599-1.779,1.876-2.828,3.831l1.616,1.284c1.049-2.146,1.779-3.255,2.19-3.326c0.255-0.044,0.518,0.095,0.787,0.415
			c0.624,0.641,1.354,1.021,2.19,1.141c0.922,0.075,2.042,0.007,3.36-0.205c1.786-0.278,3.033-0.479,3.743-0.601l4.87-0.84
			l0.531-2.357c-0.567,0.142-1.396,0.329-2.488,0.561L29.504,32.804z M23.251,32.562c1.22-2.366,1.879-5.67,1.979-9.911l6.614-1.14
			c-0.469,1.371-1.05,2.623-1.744,3.755c-0.993-0.665-2.099-1.318-3.318-1.959l-1.297,1.852c1.276,0.704,2.367,1.382,3.275,2.032
			c-1.205,1.527-2.645,2.897-4.317,4.109l1.361,1.636c1.771-1.332,3.296-2.834,4.572-4.506c1.063,0.858,2.077,1.813,3.041,2.864
			l1.489-2.104c-1.035-1.039-2.099-1.963-3.19-2.772c1.007-1.714,1.772-3.583,2.297-5.609v-1.584l-8.763,1.509l-0.021-1.844
			c3.346-0.694,6.358-1.609,9.038-2.745l-1.084-1.771c-2.794,1.156-6.125,2.111-9.996,2.866v5.17
			c-0.057,3.911-0.709,7.066-1.957,9.467L23.251,32.562z M42.307,27.057l8.698-1.499v-8.382l-8.698,1.498V27.057z M44.456,20.35
			l4.402-0.758v4.29l-4.402,0.758V20.35z M40.053,32.328l13.186-2.271v0.704l2.232-0.385V11.61L37.82,14.651v18.766l2.233-0.385
			V32.328z M40.053,16.335l13.186-2.272v13.927l-13.186,2.271V16.335z M30.781,39.418l-2.19-0.437
			c-0.327,1.039-0.71,2.059-1.148,3.058l-4.211,0.726c-0.383-1.063-0.773-1.935-1.17-2.614l-2.169,1.231
			c0.354,0.556,0.68,1.152,0.978,1.79l-4.997,0.861v2.199l8.188-1.41c-0.071,0.555-0.156,1.112-0.255,1.672l-5.764,0.993v13.903
			l2.212-0.381v-0.77l10.251-1.767v0.771l2.211-0.382V44.959l-6.613,1.14c0.127-0.535,0.233-1.097,0.318-1.684l8.465-1.458v-2.2
			l-4.977,0.857C30.235,40.884,30.525,40.151,30.781,39.418z M30.504,56.406l-10.251,1.766v-1.716l10.251-1.767V56.406z
			 M30.504,52.71l-10.251,1.766v-1.672l10.251-1.766V52.71z M30.504,47.408v1.649l-10.251,1.767v-1.65L30.504,47.408z
			 M37.204,38.378v2.155l8.188-1.41c-0.085,0.587-0.191,1.191-0.319,1.814l-5.401,0.931v10.78l2.232-0.385v-8.536l9.4-1.619v8.536
			l2.233-0.385v-10.78l-6.125,1.056c0.155-0.628,0.283-1.237,0.383-1.826l8.294-1.429v-2.156L37.204,38.378z M47.773,43.662
			l-2.255,0.389v3.498c-0.127,1.841-0.723,3.41-1.786,4.708c-1.092,1.229-3.189,2.464-6.295,3.702l1.276,1.826
			c3.147-1.305,5.388-2.739,6.72-4.304c1.433-1.728,2.212-3.835,2.34-6.321V43.662z M47.029,52.942
			c2.537,0.414,4.962,1.154,7.273,2.224l1.382-2.416c-2.184-0.871-4.657-1.516-7.422-1.934L47.029,52.942z"/>
	</g>
</g>
</svg>
