<?xml version="1.0" encoding="utf-8"?>
<!-- Generator: Adobe Illustrator 16.0.0, SVG Export Plug-In . SVG Version: 6.00 Build 0)  -->
<!DOCTYPE svg PUBLIC "-//W3C//DTD SVG 1.1//EN" "http://www.w3.org/Graphics/SVG/1.1/DTD/svg11.dtd">
<svg version="1.1" id="图层_1" xmlns="http://www.w3.org/2000/svg" xmlns:xlink="http://www.w3.org/1999/xlink" x="0px" y="0px"
	 width="33.998px" height="34px" viewBox="-5.272 50.631 33.998 34" enable-background="new -5.272 50.631 33.998 34"
	 xml:space="preserve">
<g>
	<g>
		<path fill-rule="evenodd" clip-rule="evenodd" fill="#FFFFFF" d="M15.444,69.162l-2.781-2.09v-4.314
			c0-0.447-0.363-0.81-0.811-0.81s-0.809,0.362-0.809,0.81v4.856c0,0.052,0.02,0.097,0.029,0.146
			c0.013,0.294,0.154,0.577,0.434,0.742l2.954,2.219c0.446,0.263,1.026,0.126,1.298-0.305C16.031,69.986,15.89,69.424,15.444,69.162
			z M11.727,50.697c-9.372,0-16.969,7.58-16.969,16.931S2.355,84.56,11.727,84.56c9.372,0,16.969-7.581,16.969-16.932
			S21.099,50.697,11.727,50.697z M12.258,75.71c-4.694,0-8.5-3.806-8.5-8.5s3.806-8.5,8.5-8.5s8.5,3.806,8.5,8.5
			S16.952,75.71,12.258,75.71z"/>
	</g>
</g>
</svg>
