<?xml version="1.0" encoding="iso-8859-1"?>
<!-- Generator: Adobe Illustrator 16.0.0, SVG Export Plug-In . SVG Version: 6.00 Build 0)  -->
<!DOCTYPE svg PUBLIC "-//W3C//DTD SVG 1.1//EN" "http://www.w3.org/Graphics/SVG/1.1/DTD/svg11.dtd">
<svg version="1.1" id="&#x56FE;&#x5C42;_1" xmlns="http://www.w3.org/2000/svg" xmlns:xlink="http://www.w3.org/1999/xlink" x="0px"
	 y="0px" width="30.319px" height="16.903px" viewBox="0 0 30.319 16.903" style="enable-background:new 0 0 30.319 16.903;"
	 xml:space="preserve">
<g>
	<g>
		<path style="fill:#b6b6b6;" d="M29.464,13.954L16.752,0.838c-0.367-0.379-0.728-0.625-1.071-0.747
			c-0.047-0.017-0.095-0.033-0.144-0.042c-0.448-0.112-0.863-0.003-1.215,0.351c-0.003,0.003-0.004,0.006-0.008,0.009
			c-0.197,0.14-0.396,0.311-0.598,0.519L1.203,13.873c-0.891,0.923-1.204,1.892-0.558,2.544c0.646,0.651,1.604,0.382,2.495-0.54
			L15.25,3.349l12.247,12.635c0.905,0.935,1.79,1.22,2.446,0.56S30.37,14.888,29.464,13.954z"/>
	</g>
</g>
</svg>
