<svg xmlns="http://www.w3.org/2000/svg" width="33" height="39.967" viewBox="0 0 33 39.967">
  <defs>
    <style>
      .cls-1 {
        fill: #fff;
      }
    </style>
  </defs>
  <g id="_-s-组_2" data-name="-s-组 2" transform="translate(-1348.06 -1069.03)">
    <path id="椭圆_10_拷贝_2" data-name="椭圆 10 拷贝 2" class="cls-1" d="M1357.427,1109a1.381,1.381,0,0,1-.714-.2,1.542,1.542,0,0,1-.525-2.049l2.551-5.652a16.426,16.426,0,1,1,12.4-.305l2.688,5.957a1.542,1.542,0,0,1-.525,2.049,1.379,1.379,0,0,1-.715.2,1.424,1.424,0,0,1-1.241-.75l-2.3-5.095h.024l-.062-.1-.02-.032-.6-1.318-.089.021a5.022,5.022,0,0,1-.432-3.01,13.479,13.479,0,1,0-6.042.137,3.045,3.045,0,0,1,0,3.072l-.038-.006-.24-.043-2.875,6.371A1.426,1.426,0,0,1,1357.427,1109Z"/>
    <path id="椭圆_10_拷贝_3" data-name="椭圆 10 拷贝 3" class="cls-1" d="M1359.237,1093.847a7.9,7.9,0,0,1-2.45-4.582,1.44,1.44,0,1,1,2.773-.545h.049a5.021,5.021,0,0,0,9.943,0h.039a1.44,1.44,0,1,1,2.789.5,7.881,7.881,0,0,1-13.143,4.624Z"/>
  </g>
</svg>
