<?xml version="1.0" encoding="utf-8"?>
<!-- Generator: Adobe Illustrator 23.0.0, SVG Export Plug-In . SVG Version: 6.00 Build 0)  -->
<svg version="1.1" id="图层_1" xmlns="http://www.w3.org/2000/svg" xmlns:xlink="http://www.w3.org/1999/xlink" x="0px" y="0px"
	 viewBox="0 0 32 32" style="enable-background:new 0 0 32 32;" xml:space="preserve">
<style type="text/css">
	.st0{fill-rule:evenodd;clip-rule:evenodd;fill:#C8C8C8;}
</style>
<g>
	<g>
		<path class="st0" d="M24.47,3.95c-2.98,0-6.88,3.52-8.47,5.77c-1.59-2.25-5.49-5.77-8.47-5.77C3.1,3.95,0,7.52,0,11.65
			c0,2.37,2.19,5.89,4.45,8.59l10.5,9.26c0.57,0.56,1.49,0.56,2.06,0l10.52-9.26c2.82-3.02,4.46-5.38,4.46-7.63
			C32,7.12,27.69,3.95,24.47,3.95z M28.03,12.08c-0.59,0-1.07-0.48-1.07-1.08H26.9c-0.25-1.23-1.33-2.15-2.63-2.15
			c-0.18,0-0.36,0.02-0.54,0.06V8.85c-0.59,0-1.07-0.48-1.07-1.08s0.48-1.08,1.07-1.08c0.06,0,0.11,0.02,0.17,0.03
			c0.12-0.02,0.24-0.03,0.37-0.03c2.29,0,4.18,1.61,4.67,3.76c0.1,0.16,0.17,0.34,0.17,0.54C29.1,11.59,28.62,12.08,28.03,12.08z"/>
	</g>
</g>
</svg>
