<?xml version="1.0" encoding="utf-8"?>
<!-- Generator: Adobe Illustrator 16.0.0, SVG Export Plug-In . SVG Version: 6.00 Build 0)  -->
<!DOCTYPE svg PUBLIC "-//W3C//DTD SVG 1.1//EN" "http://www.w3.org/Graphics/SVG/1.1/DTD/svg11.dtd">
<svg version="1.1" id="图层_1" xmlns="http://www.w3.org/2000/svg" xmlns:xlink="http://www.w3.org/1999/xlink" x="0px" y="0px"
	 width="22px" height="23px" viewBox="0 0 22 23" enable-background="new 0 0 22 23" xml:space="preserve">
<g>
	<g>
		<path fill-rule="evenodd" clip-rule="evenodd" fill="#B9B9B9" d="M7,18c0.553,0,1-0.448,1-1v-7c0-0.552-0.447-1-1-1s-1,0.448-1,1
			v7C6,17.552,6.447,18,7,18z M21,4h-6c0-2.209-1.791-4-4-4S7,1.791,7,4H1C0.447,4,0,4.448,0,5s0.447,1,1,1h1v14
			c0,1.657,1.343,3,3,3h12c1.657,0,3-1.343,3-3V6h1c0.553,0,1-0.448,1-1S21.553,4,21,4z M11,2c1.104,0,2,0.896,2,2H9
			C9,2.896,9.896,2,11,2z M18,19c0,1.104-0.896,2-2,2H6c-1.104,0-2-0.896-2-2V6h14V19z M11,18c0.553,0,1-0.448,1-1v-7
			c0-0.552-0.447-1-1-1s-1,0.448-1,1v7C10,17.552,10.447,18,11,18z M15,18c0.553,0,1-0.448,1-1v-7c0-0.552-0.447-1-1-1s-1,0.448-1,1
			v7C14,17.552,14.447,18,15,18z"/>
	</g>
</g>
</svg>
