<?xml version="1.0" encoding="utf-8"?>
<!-- Generator: Adobe Illustrator 16.0.0, SVG Export Plug-In . SVG Version: 6.00 Build 0)  -->
<!DOCTYPE svg PUBLIC "-//W3C//DTD SVG 1.1//EN" "http://www.w3.org/Graphics/SVG/1.1/DTD/svg11.dtd">
<svg version="1.1" id="图层_1" xmlns="http://www.w3.org/2000/svg" xmlns:xlink="http://www.w3.org/1999/xlink" x="0px" y="0px"
	 width="36px" height="56px" viewBox="0 0 36 56" enable-background="new 0 0 36 56" xml:space="preserve">
<g id="椭圆_3_3_">
	<g>
		<path fill="#fff" d="M32.956,14.167C30.396,5.998,21.703,1.422,13.54,3.946c-6.014,1.86-10.058,7.057-10.749,12.93
			c2.247-4.466,6.89-7.509,12.232-7.454c7.491,0.075,13.516,6.207,13.457,13.697c-0.031,3.987-1.781,7.554-4.542,10.008
			C31.385,30.184,35.396,21.95,32.956,14.167z"/>
	</g>
</g>
<g id="椭圆_4_3_">
	<g>
		<path fill="#fff" d="M21.238,18.465c-0.598-2.238-2.926-3.557-5.198-2.945c-2.272,0.609-3.629,2.918-3.032,5.156
			c0.598,2.236,2.925,3.555,5.198,2.943C20.478,23.01,21.835,20.701,21.238,18.465z"/>
	</g>
</g>
<g id="形状_2_拷贝_2_3_">
	<g>
		<path fill="#fff" d="M18.273,30.766c-4.241-2.976-9.782-3.049-11.906-13.659c0,0-9.599,8.564,2.925,17.272
			c6.095,4.239,8.054,7.03,5.813,13.362c-1.286,3.636-4.93,6.151-4.93,6.151s8.022-3.038,10.779-9.285
			C22.894,40.21,22.259,33.562,18.273,30.766z"/>
	</g>
</g>
</svg>
