<?xml version="1.0" encoding="utf-8"?>
<!-- Generator: Adobe Illustrator 16.0.0, SVG Export Plug-In . SVG Version: 6.00 Build 0)  -->
<!DOCTYPE svg PUBLIC "-//W3C//DTD SVG 1.1//EN" "http://www.w3.org/Graphics/SVG/1.1/DTD/svg11.dtd">
<svg version="1.1" id="图层_1" xmlns="http://www.w3.org/2000/svg" xmlns:xlink="http://www.w3.org/1999/xlink" x="0px" y="0px"
	 width="79.947px" height="32.061px" viewBox="0 0 79.947 32.061" enable-background="new 0 0 79.947 32.061" xml:space="preserve">
<g>
	<g>
		<path fill="#E34444" d="M26.427,7.879c0.351,0.22,0.754,0.33,1.211,0.33c0.456,0.008,0.898-0.1,1.327-0.324
			s0.79-0.533,1.084-0.927c0.293-0.394,0.485-0.819,0.574-1.276c0.079-0.449,0.038-0.874-0.124-1.276S30.07,3.696,29.697,3.48
			s-0.762-0.324-1.168-0.324c-0.408,0.008-0.835,0.119-1.283,0.33c-0.448,0.211-0.822,0.521-1.122,0.927
			c-0.307,0.398-0.499,0.823-0.574,1.276c-0.076,0.453-0.036,0.876,0.119,1.27C25.824,7.352,26.076,7.659,26.427,7.879z
			 M17.156,11.065H29.94l1.766-2.742H18.604l2.606-4.989h-4.189l-2.619,4.989h-2.019L14.9,3.486h-4.037L8,8.704l-0.417,2.361h5.383
			l-8.279,15.78h4.202l5.719-10.905h9.775l-3.556,2.958l-1.286-1.422h-5.446l3.624,3.999l-6.452,5.345h5.599l3.247-2.717
			l2.517,2.793h5.446l-4.868-5.37l6.318-5.307l0.533-3.021H16.044L17.156,11.065z M40.229,23.126l0.558-3.237h2.006l1.608-2.641
			h-3.148l0.432-2.45h2.945l1.617-2.691h-5.065l0.645-3.656h3.288l1.684-2.78h-4.481l0.445-2.526h-4.037L38.28,5.67H34.7l-0.49,2.78
			h3.58l-0.645,3.656h-3.707l-0.475,2.691h4.799l-1.226,6.881l-0.663-0.343l0.875-4.888h-3.923l-1.892,10.728l4.131-1.181
			l0.21-1.193l4.471,2.006h13.368l1.735-3.072H41.569L40.229,23.126z M52.398,14.163l4.097-3.072l1.332-7.554H47.67l-0.488,2.768
			h6.31l-0.917,5.129l-6-0.025l-1.92,11.032l9.054-0.013l1.771-2.768h-6.475l0.967-5.484L52.398,14.163z M74.969,10.57h-3.593
			l4.498-7.363h-4.837L56.931,26.973l4.886,0.013l8.665-14.727l4.359,14.587l5.105-0.013L74.969,10.57z"/>
	</g>
</g>
</svg>
