<?xml version="1.0" encoding="utf-8"?>
<!-- Generator: Adobe Illustrator 16.0.0, SVG Export Plug-In . SVG Version: 6.00 Build 0)  -->
<!DOCTYPE svg PUBLIC "-//W3C//DTD SVG 1.1//EN" "http://www.w3.org/Graphics/SVG/1.1/DTD/svg11.dtd">
<svg version="1.1" id="图层_1" xmlns="http://www.w3.org/2000/svg" xmlns:xlink="http://www.w3.org/1999/xlink" x="0px" y="0px"
	 width="33.998px" height="34px" viewBox="-5.272 50.631 33.998 34" enable-background="new -5.272 50.631 33.998 34"
	 xml:space="preserve">
<g>
	<g>
		<path fill-rule="evenodd" clip-rule="evenodd" fill="#0074CD" d="M11.727,50.69c-9.37,0-16.966,7.583-16.966,16.938
			c0,9.354,7.596,16.938,16.966,16.938c9.369,0,16.966-7.583,16.966-16.938C28.692,58.273,21.096,50.69,11.727,50.69z
			 M14.551,71.629l2.015,4.143c0.167,0.294,0.067,0.67-0.223,0.84c-0.187,0.108-0.401,0.097-0.58,0.003l0.028,0.076H7.73
			l0.013-0.031c-0.047-0.014-0.096-0.021-0.14-0.048c-0.291-0.17-0.391-0.546-0.223-0.84l1.949-4.008
			c-2.666-0.954-4.568-3.421-4.568-6.323c0-3.729,3.134-6.75,7-6.75s7,3.021,7,6.75C18.761,68.211,17.027,70.589,14.551,71.629z
			 M14.5,66.136c-0.336,0-0.609,0.263-0.609,0.586h-0.03c-0.149,0.994-1.027,1.76-2.1,1.76s-1.951-0.766-2.1-1.76H9.63
			c0-0.323-0.272-0.586-0.609-0.586c-0.336,0-0.608,0.263-0.608,0.586c0,0.092,0.025,0.175,0.064,0.252
			c0.271,1.52,1.629,2.681,3.284,2.681s3.013-1.161,3.284-2.681c0.038-0.077,0.063-0.16,0.063-0.252
			C15.108,66.398,14.836,66.136,14.5,66.136z"/>
	</g>
</g>
</svg>
