<?xml version="1.0" encoding="utf-8"?>
<!-- Generator: Adobe Illustrator 16.0.0, SVG Export Plug-In . SVG Version: 6.00 Build 0)  -->
<!DOCTYPE svg PUBLIC "-//W3C//DTD SVG 1.1//EN" "http://www.w3.org/Graphics/SVG/1.1/DTD/svg11.dtd">
<svg version="1.1" id="图层_1" xmlns="http://www.w3.org/2000/svg" xmlns:xlink="http://www.w3.org/1999/xlink" x="0px" y="0px"
	 width="26px" height="26px" viewBox="0 0 26 26" enable-background="new 0 0 26 26" xml:space="preserve">
<g>
	<g>
		<path fill-rule="evenodd" clip-rule="evenodd" fill="#626262" d="M23.199,9.953c0-5.497-4.477-9.953-10-9.953s-10,4.456-10,9.953
			c0,4.373,2.837,8.078,6.775,9.414l-2.357,5.476c-0.183,0.424,0.022,0.911,0.456,1.09c0.046,0.019,0.094,0.017,0.141,0.027
			L8.199,26h10l-0.017-0.039c0.049-0.011,0.099-0.009,0.146-0.029c0.435-0.179,0.639-0.666,0.456-1.09l-2.357-5.477
			C20.364,18.028,23.199,14.324,23.199,9.953z M18.175,11.239C18.047,13.887,15.878,16,13.199,16s-4.848-2.113-4.976-4.761h0.024
			C8.228,11.161,8.199,11.085,8.199,11c0-0.553,0.448-1,1-1s1,0.447,1,1c0,0.085-0.028,0.161-0.048,0.239h0.072
			C10.348,12.782,11.625,14,13.199,14s2.852-1.218,2.976-2.761h0.073c-0.02-0.078-0.048-0.154-0.048-0.239c0-0.553,0.448-1,1-1
			s1,0.447,1,1c0,0.085-0.028,0.161-0.048,0.239H18.175z"/>
	</g>
</g>
</svg>
