<svg xmlns="http://www.w3.org/2000/svg" width="33.331" height="28.299" viewBox="0 0 33.331 28.299">
  <defs>
    <style>
      .cls-1 {
        fill: #f06969;
      }

      .cls-2 {
        fill: #fff;
      }
    </style>
  </defs>
  <g id="_-s-组_6" data-name="-s-组 6" transform="translate(-466.003 -1522.696)">
    <path id="圆角矩形_20_拷贝_2" data-name="圆角矩形 20 拷贝 2" class="cls-1" d="M495.337,1550.995H472.665l-.022-.069a3.284,3.284,0,0,1-.586.069h-.112a3.3,3.3,0,0,1-2.319-1,3.366,3.366,0,0,1-.452-4.127l-.148-.075-3.022,5.2,15.172-26.129.121-.14.024-.028c.682-.8,1.713-2,2.68-2,1.264,0,2.15,1.192,2.736,1.981l12.318,21.214-.138.138a3.343,3.343,0,0,1-.541,3.961,3.3,3.3,0,0,1-2.319,1h-.112a3.35,3.35,0,0,1-.563-.067l-.043.067Z"/>
    <path id="圆角矩形_20_拷贝_3" data-name="圆角矩形 20 拷贝 3" class="cls-2" d="M483.62,1546.77a1,1,0,0,1-1-1v-.82a1,1,0,0,1,1-1h.77a1,1,0,0,1,1,1v.82a1,1,0,0,1-1,1Zm-1.391-5.466-.9-6.561a2.732,2.732,0,0,1-.1-.7h0s0-.007,0-.01,0-.006,0-.01a2.77,2.77,0,0,1,5.54,0s0,.006,0,.01,0,.007,0,.01h0a2.732,2.732,0,0,1-.1.7l-.9,6.56a1.733,1.733,0,0,1-1.723,1.226A1.764,1.764,0,0,1,482.23,1541.3Z"/>
  </g>
</svg>
