<?xml version="1.0" encoding="utf-8"?>
<!-- Generator: Adobe Illustrator 16.0.0, SVG Export Plug-In . SVG Version: 6.00 Build 0)  -->
<!DOCTYPE svg PUBLIC "-//W3C//DTD SVG 1.1//EN" "http://www.w3.org/Graphics/SVG/1.1/DTD/svg11.dtd">
<svg version="1.1" id="图层_1" xmlns="http://www.w3.org/2000/svg" xmlns:xlink="http://www.w3.org/1999/xlink" x="0px" y="0px"
	 width="38px" height="38px" viewBox="-9 -9 38 38" enable-background="new -9 -9 38 38" xml:space="preserve">
<g>
	<g>
		<path fill-rule="evenodd" clip-rule="evenodd" fill="#626262" d="M0.5,13.5h-5c-1.104,0-2,0.896-2,2v7c0,1.104,0.896,2,2,2h5
			c1.104,0,2-0.896,2-2v-7C2.5,14.396,1.604,13.5,0.5,13.5z M12.5-1.5h-5c-1.104,0-2,0.896-2,2v22c0,1.104,0.896,2,2,2h5
			c1.104,0,2-0.896,2-2v-22C14.5-0.604,13.604-1.5,12.5-1.5z M24.5,4.5h-5c-1.104,0-2,0.896-2,2v16c0,1.104,0.896,2,2,2h5
			c1.104,0,2-0.896,2-2v-16C26.5,5.396,25.604,4.5,24.5,4.5z"/>
	</g>
</g>
</svg>
