<?xml version="1.0" encoding="utf-8"?>
<!-- Generator: Adobe Illustrator 16.0.0, SVG Export Plug-In . SVG Version: 6.00 Build 0)  -->
<!DOCTYPE svg PUBLIC "-//W3C//DTD SVG 1.1//EN" "http://www.w3.org/Graphics/SVG/1.1/DTD/svg11.dtd">
<svg version="1.1" id="图层_1" xmlns="http://www.w3.org/2000/svg" xmlns:xlink="http://www.w3.org/1999/xlink" x="0px" y="0px"
	 width="26px" height="26px" viewBox="0 0 26 26" enable-background="new 0 0 26 26" xml:space="preserve">
<g>
	<g>
		<path fill-rule="evenodd" clip-rule="evenodd" fill="#626262" d="M13,2.5C7.201,2.5,2.5,7.201,2.5,13S7.201,23.5,13,23.5
			S23.5,18.799,23.5,13S18.799,2.5,13,2.5z M17.19,17.207c-0.463,0.465-1.308,0.371-1.886-0.21L13,14.683l-2.305,2.314
			c-0.579,0.581-1.423,0.675-1.885,0.21c-0.463-0.465-0.369-1.313,0.209-1.893L11.324,13L9.02,10.686
			C8.441,10.104,8.347,9.257,8.81,8.793c0.463-0.465,1.307-0.371,1.886,0.209L13,11.316l2.305-2.314
			c0.578-0.58,1.422-0.674,1.885-0.209c0.463,0.464,0.369,1.312-0.209,1.893L14.676,13l2.305,2.314
			C17.56,15.895,17.653,16.742,17.19,17.207z"/>
	</g>
</g>
</svg>
