<?xml version="1.0" encoding="utf-8"?>
<!-- Generator: Adobe Illustrator 16.0.0, SVG Export Plug-In . SVG Version: 6.00 Build 0)  -->
<!DOCTYPE svg PUBLIC "-//W3C//DTD SVG 1.1//EN" "http://www.w3.org/Graphics/SVG/1.1/DTD/svg11.dtd">
<svg version="1.1" id="图层_1" xmlns="http://www.w3.org/2000/svg" xmlns:xlink="http://www.w3.org/1999/xlink" x="0px" y="0px"
	 width="33.998px" height="34px" viewBox="-5.272 50.631 33.998 34" enable-background="new -5.272 50.631 33.998 34"
	 xml:space="preserve">
<g>
	<g>
		<path fill-rule="evenodd" clip-rule="evenodd" fill="#00CD91" d="M12.768,65.195l-1.23-2.264l-1.232,2.264l-2.504,0.487
			l1.743,1.886l-0.316,2.565l2.31-1.098l2.309,1.098l-0.316-2.565l1.742-1.886L12.768,65.195z M11.728,50.631
			c-9.389,0-17,7.611-17,17s7.611,17,17,17s17-7.611,17-17S21.116,50.631,11.728,50.631z M19.014,73.936
			c0,0.909-0.45,1.711-1.135,2.189l-5.322-3.689c-0.492-0.502-1.291-0.502-1.783,0L5.517,76.08
			c-0.651-0.482-1.075-1.262-1.075-2.145V61.788c0-1.468,1.171-2.657,2.615-2.657h9.341c1.443,0,2.615,1.189,2.615,2.657V73.936z"/>
	</g>
</g>
</svg>
