<?xml version="1.0" encoding="utf-8"?>
<!-- Generator: Adobe Illustrator 16.0.0, SVG Export Plug-In . SVG Version: 6.00 Build 0)  -->
<!DOCTYPE svg PUBLIC "-//W3C//DTD SVG 1.1//EN" "http://www.w3.org/Graphics/SVG/1.1/DTD/svg11.dtd">
<svg version="1.1" id="图层_1" xmlns="http://www.w3.org/2000/svg" xmlns:xlink="http://www.w3.org/1999/xlink" x="0px" y="0px"
	 width="26.728px" height="26.729px" viewBox="0 0 26.728 26.729" enable-background="new 0 0 26.728 26.729" xml:space="preserve">
<g>
	<g>
		<path fill-rule="evenodd" clip-rule="evenodd" fill="#B9B9B9" d="M26.142,23.314l-4.37-4.37
			c3.337-4.686,2.917-11.226-1.287-15.429c-4.687-4.686-12.284-4.686-16.971,0c-4.686,4.687-4.686,12.284,0,16.971
			c4.204,4.204,10.743,4.624,15.429,1.287l4.37,4.37c0.781,0.781,2.047,0.781,2.829,0C26.923,25.361,26.923,24.095,26.142,23.314z
			 M5.636,18.364c-3.515-3.515-3.515-9.213,0-12.728c3.515-3.515,9.213-3.515,12.728,0c3.515,3.515,3.515,9.213,0,12.728
			C14.849,21.879,9.151,21.879,5.636,18.364z"/>
	</g>
</g>
</svg>
