<?xml version="1.0" encoding="utf-8"?>
<!-- Generator: Adobe Illustrator 16.0.0, SVG Export Plug-In . SVG Version: 6.00 Build 0)  -->
<!DOCTYPE svg PUBLIC "-//W3C//DTD SVG 1.1//EN" "http://www.w3.org/Graphics/SVG/1.1/DTD/svg11.dtd">
<svg version="1.1" id="图层_1" xmlns="http://www.w3.org/2000/svg" xmlns:xlink="http://www.w3.org/1999/xlink" x="0px" y="0px"
	 width="82.974px" height="23.93px" viewBox="-9 5.07 82.974 23.93" enable-background="new -9 5.07 82.974 23.93"
	 xml:space="preserve">
<g>
	<g>
		<path fill="#00CD91" d="M13.255,11.79l0.421-2.262h5.383l0.519-2.787h-5.382l0.231-1.245h-4.022l-0.232,1.245H4.79l-0.52,2.787
			h5.383L9.232,11.79H3.028l-0.52,2.786h16.402l0.52-2.786H13.255z M17.237,15.199h-3.853l-0.22,1.18H1.833L1.32,19.133h11.332
			l-1.191,6.396c-0.057,0.305-0.188,0.556-0.396,0.751c-0.206,0.195-0.441,0.294-0.706,0.294H8.49l-1.164,2.294h4.249
			c0.435,0,0.857-0.093,1.271-0.278c0.412-0.186,0.79-0.442,1.135-0.771s0.638-0.71,0.879-1.147c0.242-0.437,0.41-0.906,0.504-1.409
			l1.142-6.13h1.558l0.514-2.754h-1.559L17.237,15.199z M2.467,11.003H0.398l3.069-5.376h-4.307l-5.269,9.277h2.04l-3.041,5.376
			h2.691l-1.606,8.621h4.108l2.222-11.933h-1.246L2.467,11.003z M6.188,20.378H2.335l1.271,6.557l3.858-0.028L6.188,20.378z
			 M40.405,15.985l1.344-7.211h3.286l0.629-3.377H22.746l-0.629,3.377h4.815l-2.448,7.211h-4.646l-0.629,3.377h4.136l-3.233,9.604
			h3.796l3.233-9.604h8.839l-1.788,9.604h3.796l1.788-9.604h4.222l0.629-3.377H40.405z M36.609,15.985h-8.328l2.447-7.211h7.225
			L36.609,15.985z M57.504,14.772H68.4l0.054,0.623h3.627l-1.072-7.933h-3.598l0.606,4.491h-4.782l3.548-6.589h-4.245l-5.021,9.342
			L57.504,14.772z M55.433,29h10.573c0.434,0,0.864-0.087,1.293-0.263c0.39-0.175,0.767-0.426,1.13-0.754
			c0.32-0.306,0.605-0.677,0.857-1.114c0.247-0.415,0.421-0.896,0.523-1.442l1.789-9.605H57.887L55.433,29z M60.908,19.067h6.459
			l-1.068,5.736c-0.057,0.307-0.187,0.547-0.389,0.721c-0.207,0.197-0.434,0.296-0.679,0.296H59.65L60.908,19.067z M53.61,24.64
			c0.655-0.48,1.16-0.906,1.513-1.278l2.222-11.933h0.794l0.604-3.245h-0.794l0.525-2.818h-3.626l-0.525,2.818h-1.558l0.524-2.818
			h-3.626L49.14,8.184h-0.794l-0.604,3.245h0.794l-2.223,11.933c0.192,0.372,0.535,0.798,1.027,1.278
			c-0.741,0.328-1.488,0.634-2.239,0.918L44.459,29c0.952-0.24,1.962-0.591,3.03-1.05c0.886-0.393,1.746-0.797,2.58-1.213
			c0.68,0.416,1.398,0.82,2.157,1.213c0.917,0.459,1.796,0.81,2.64,1.05l0.641-3.442C54.861,25.273,54.229,24.968,53.61,24.64z
			 M51.71,22.214c-0.217,0.131-0.434,0.263-0.65,0.394l-0.261,0.164l-0.2-0.164c-0.153-0.109-0.304-0.229-0.452-0.36l2.015-10.818
			h1.558L51.71,22.214z"/>
	</g>
</g>
</svg>
