<?xml version="1.0" encoding="utf-8"?>
<!-- Generator: Adobe Illustrator 16.0.0, SVG Export Plug-In . SVG Version: 6.00 Build 0)  -->
<!DOCTYPE svg PUBLIC "-//W3C//DTD SVG 1.1//EN" "http://www.w3.org/Graphics/SVG/1.1/DTD/svg11.dtd">
<svg version="1.1" id="图层_1" xmlns="http://www.w3.org/2000/svg" xmlns:xlink="http://www.w3.org/1999/xlink" x="0px" y="0px"
	 width="38px" height="38px" viewBox="-9 -9 38 38" enable-background="new -9 -9 38 38" xml:space="preserve">
<g>
	<g>
		<path fill-rule="evenodd" clip-rule="evenodd" fill="#626262" d="M25,10.069V6c0-8.284-6.716-15-15-15S-5-2.284-5,6v4.069
			C-7.399,11.307-9,13.496-9,16c0,3.866,3.806,7,8.5,7c0.169,0,0.333-0.013,0.5-0.021V9.021C-0.167,9.013-0.331,9-0.5,9
			S-0.833,9.013-1,9.021V6C-1-0.075,3.925-5,10-5S21-0.075,21,6v3.021C20.834,9.013,20.669,9,20.5,9S20.166,9.013,20,9.021v13.959
			C20.166,22.987,20.331,23,20.5,23c4.694,0,8.5-3.134,8.5-7C29,13.496,27.399,11.307,25,10.069z"/>
	</g>
</g>
<g>
	<g>
		<path fill-rule="evenodd" clip-rule="evenodd" fill="#626262" d="M22.5,18h-1v5c0,1.896,0,2-2,2h-6.511
			c-0.457-0.604-1.173-1-1.989-1c-1.381,0-2.5,1.119-2.5,2.5S9.619,29,11,29c0.815,0,1.532-0.396,1.989-1H22.5c1.104,0,2-0.896,2-2
			v-6C24.5,18.896,23.604,18,22.5,18z"/>
	</g>
</g>
</svg>
