<?xml version="1.0" standalone="no"?><!DOCTYPE svg PUBLIC "-//W3C//DTD SVG 1.1//EN" "http://www.w3.org/Graphics/SVG/1.1/DTD/svg11.dtd"><svg t="1525400539761" class="icon" style="" viewBox="0 0 1024 1024" version="1.1" xmlns="http://www.w3.org/2000/svg" p-id="2231" xmlns:xlink="http://www.w3.org/1999/xlink" width="200" height="200"><defs><style type="text/css"></style></defs><path d="M48.657861 385.921492h925.106701c19.839715 0 37.759457-11.519834 45.24735-29.88757a47.615316 47.615316 0 0 0-10.239853-52.287248L716.808256 14.278835a48.191307 48.191307 0 0 0-68.479015 0 47.359319 47.359319 0 0 0 0 67.967023l208.956996 207.229021H49.297852A48.639301 48.639301 0 0 0 14.482352 371.841695a48.063309 48.063309 0 0 0 34.239508 14.079797z m925.106701 299.643693H48.72186c-19.839715 0-37.759457 11.583833-45.24735 29.951569a43.519374 43.519374 0 0 0-3.45595 18.303737c0 12.223824 4.799931 25.151638 14.399793 33.983512l243.260503 241.916522a48.191307 48.191307 0 0 0 68.543015 0 47.359319 47.359319 0 0 0 0-67.967023l-160.317696-158.973714h807.860387a48.639301 48.639301 0 0 0 48.639301-48.255307 49.279292 49.279292 0 0 0-48.639301-48.959296z" p-id="2232" fill="#00CD91"></path></svg>