<?xml version="1.0" encoding="utf-8"?>
<!-- Generator: Adobe Illustrator 16.0.0, SVG Export Plug-In . SVG Version: 6.00 Build 0)  -->
<!DOCTYPE svg PUBLIC "-//W3C//DTD SVG 1.1//EN" "http://www.w3.org/Graphics/SVG/1.1/DTD/svg11.dtd">
<svg version="1.1" id="图层_1" xmlns="http://www.w3.org/2000/svg" xmlns:xlink="http://www.w3.org/1999/xlink" x="0px" y="0px"
	 width="30px" height="29.996px" viewBox="0 0 30 29.996" enable-background="new 0 0 30 29.996" xml:space="preserve">
<g>
	<g>
		<path fill-rule="evenodd" clip-rule="evenodd" fill="#00CD91" d="M29,13.996h-3.05C25.474,8.72,21.276,4.52,16,4.044V0.996
			c0-0.552-0.448-1-1-1c-0.553,0-1,0.448-1,1v3.048C8.724,4.52,4.526,8.72,4.05,13.996H1c-0.553,0-1,0.448-1,1s0.447,1,1,1h3.05
			c0.476,5.276,4.674,9.477,9.95,9.952v3.048c0,0.552,0.447,1,1,1c0.552,0,1-0.448,1-1v-3.048c5.276-0.476,9.474-4.676,9.95-9.952
			H29c0.553,0,1-0.448,1-1S29.553,13.996,29,13.996z M15,22.996c-4.418,0-8-3.582-8-8c0-4.418,3.582-8,8-8s8,3.582,8,8
			C23,19.415,19.418,22.996,15,22.996z M15,9.996c-2.762,0-5,2.238-5,5s2.238,5,5,5s5-2.238,5-5S17.762,9.996,15,9.996z"/>
	</g>
</g>
</svg>
