<?xml version="1.0" encoding="utf-8"?>
<!-- Generator: Adobe Illustrator 16.0.0, SVG Export Plug-In . SVG Version: 6.00 Build 0)  -->
<!DOCTYPE svg PUBLIC "-//W3C//DTD SVG 1.1//EN" "http://www.w3.org/Graphics/SVG/1.1/DTD/svg11.dtd">
<svg version="1.1" id="图层_1" xmlns="http://www.w3.org/2000/svg" xmlns:xlink="http://www.w3.org/1999/xlink" x="0px" y="0px"
	 width="43px" height="43px" viewBox="0 0 43 43" enable-background="new 0 0 43 43" xml:space="preserve">
<g>
	<g>
		<path fill="#eaeaea" d="M21.5,0C9.626,0,0,9.626,0,21.5S9.626,43,21.5,43S43,33.374,43,21.5S33.374,0,21.5,0z M21.5,41
			C10.73,41,2,32.27,2,21.5S10.73,2,21.5,2S41,10.73,41,21.5S32.27,41,21.5,41z M21.65,8.954c-2.322,0-4.128,0.709-5.418,2.129
			c-1.27,1.333-1.903,3.14-1.903,5.419h2.548c0-1.569,0.355-2.806,1.064-3.709c0.774-1.053,1.968-1.581,3.58-1.581
			c1.376,0,2.43,0.376,3.161,1.129c0.731,0.731,1.097,1.731,1.097,3c0,0.882-0.322,1.731-0.968,2.548
			c-0.129,0.172-0.494,0.56-1.097,1.161c-1.721,1.527-2.806,2.774-3.258,3.742c-0.387,0.796-0.58,1.731-0.58,2.806v0.742h2.58
			v-0.742c0-0.881,0.204-1.666,0.613-2.354c0.322-0.602,0.827-1.193,1.516-1.774c1.376-1.226,2.247-2.053,2.612-2.483
			c0.817-1.075,1.227-2.333,1.227-3.773c0-1.936-0.603-3.452-1.807-4.548C25.393,9.524,23.736,8.954,21.65,8.954z M21.167,28.598
			c-0.56,0-1.021,0.183-1.387,0.548c-0.366,0.344-0.549,0.796-0.549,1.355s0.183,1.021,0.549,1.387
			c0.408,0.366,0.871,0.548,1.387,0.548c0.517,0,0.979-0.183,1.387-0.548c0.388-0.365,0.581-0.828,0.581-1.387
			c0-0.538-0.184-0.989-0.549-1.355C22.221,28.78,21.748,28.598,21.167,28.598z"/>
	</g>
</g>
</svg>
