<?xml version="1.0" encoding="iso-8859-1"?>
<!-- Generator: Adobe Illustrator 16.0.0, SVG Export Plug-In . SVG Version: 6.00 Build 0)  -->
<!DOCTYPE svg PUBLIC "-//W3C//DTD SVG 1.1//EN" "http://www.w3.org/Graphics/SVG/1.1/DTD/svg11.dtd">
<svg version="1.1" id="&#x56FE;&#x5C42;_1" xmlns="http://www.w3.org/2000/svg" xmlns:xlink="http://www.w3.org/1999/xlink" x="0px"
	 y="0px" width="38px" height="52.975px" viewBox="0 0 38 52.975" style="enable-background:new 0 0 38 52.975;"
	 xml:space="preserve">
<path style="fill-rule:evenodd;clip-rule:evenodd;fill:#48A8D9;" d="M-0.063,52.975c0,0,3.986-10.029,19-10.029
	c12.994,0,19,10.029,19,10.029H-0.063z"/>
<path style="fill-rule:evenodd;clip-rule:evenodd;fill:#2A8BBC;" d="M24.142,43.522c-1.593-0.36-3.325-0.576-5.208-0.576
	c-2.224,0-4.2,0.224-5.963,0.599c0.878,1.111,2.024,2.899,5.577,2.899C22.275,46.444,23.274,44.645,24.142,43.522z"/>
<path style="fill-rule:evenodd;clip-rule:evenodd;fill:#CEEFF8;" d="M19,9.85c8.284,0,15,6.96,15,15.547s-6.716,15.547-15,15.547
	S4,33.983,4,25.397S10.716,9.85,19,9.85z"/>
<path style="fill-rule:evenodd;clip-rule:evenodd;fill:#CEEFF8;" d="M4,21.881c2.209,0,4,2.021,4,4.516s-1.791,4.516-4,4.516
	s-4-2.021-4-4.516S1.791,21.881,4,21.881z"/>
<path style="fill-rule:evenodd;clip-rule:evenodd;fill:#CEEFF8;" d="M34,21.881c2.209,0,4,2.021,4,4.516s-1.791,4.516-4,4.516
	s-4-2.021-4-4.516S31.791,21.881,34,21.881z"/>
<path style="fill-rule:evenodd;clip-rule:evenodd;fill:#48A8D9;" d="M3.998,26.899c0,0-3.439-4.481-2-14.041
	c0.999-6.635,6-8.023,6-8.023s6.252-7.226,16-4.012c8.272,2.728,11.083,7.803,12,10.029c0.916,2.227-1.129,14.556-2,16.046
	c0,0-1.032-5.071-2-7.02c-0.969-1.95-14.464-0.844-20-5.015c0,0-2.91,3-5,6.018C4.907,23.899,4.173,25.789,3.998,26.899z"/>
<path style="fill-rule:evenodd;clip-rule:evenodd;fill:#CEEFF8;" d="M14.547,36.944v7c0,0.828,1.791,1.5,4,1.5s4-0.672,4-1.5v-7
	H14.547z"/>
<path style="fill-rule:evenodd;clip-rule:evenodd;fill:#57C4E4;" d="M22.547,40.501c-3.014,0.758-5.98,0.209-8-0.302v0.48
	c3.243,2.309,6.466,1.043,8,0.169V40.501z"/>
</svg>
