<?xml version="1.0" encoding="utf-8"?>
<!-- Generator: Adobe Illustrator 16.0.0, SVG Export Plug-In . SVG Version: 6.00 Build 0)  -->
<!DOCTYPE svg PUBLIC "-//W3C//DTD SVG 1.1//EN" "http://www.w3.org/Graphics/SVG/1.1/DTD/svg11.dtd">
<svg version="1.1" id="图层_1" xmlns="http://www.w3.org/2000/svg" xmlns:xlink="http://www.w3.org/1999/xlink" x="0px" y="0px"
	 width="76.46px" height="71.047px" viewBox="3.853 5.07 76.46 71.047" enable-background="new 3.853 5.07 76.46 71.047"
	 xml:space="preserve">
<g>
	<g>
		<path fill-rule="evenodd" clip-rule="evenodd" fill="#FFFFFF" d="M35.37,55.127l-4.131-2.231l-0.009-0.021l-0.014,0.009
			l-0.016-0.009l-0.011,0.024L8.344,66.791V12.508c0-1.657,1.343-3,3-3h43.5c1.657,0,3,1.343,3,3V31.83
			c0.736-0.064,1.48-0.104,2.234-0.104c0.759,0,1.508,0.039,2.249,0.105v-17.88c0-4.905-4.027-8.882-8.995-8.882H12.849
			c-4.968,0-8.996,3.977-8.996,8.882v55.493h0.125l-0.125,0.076l1.732,4.098l25.898-15.746l4.195,2.267
			c-0.216-1.3-0.334-2.632-0.334-3.991C35.344,55.806,35.355,55.466,35.37,55.127z M60.063,36.133c-11.184,0-20.25,8.954-20.25,20
			s9.066,20,20.25,20s20.25-8.954,20.25-20S71.246,36.133,60.063,36.133z M60.078,71.664c-8.689,0-15.734-6.954-15.734-15.531
			c0-8.578,7.045-15.531,15.734-15.531s15.734,6.953,15.734,15.531C75.813,64.71,68.768,71.664,60.078,71.664z M65.913,54.004
			l-11.691-0.059c-1.613-0.008-2.917,0.955-2.911,2.149c0.006,1.195,1.319,2.171,2.934,2.179l11.691,0.059
			c1.613,0.008,2.917-0.954,2.911-2.149S67.527,54.013,65.913,54.004z"/>
	</g>
</g>
</svg>
