<?xml version="1.0" encoding="utf-8"?>
<!-- Generator: Adobe Illustrator 16.0.0, SVG Export Plug-In . SVG Version: 6.00 Build 0)  -->
<!DOCTYPE svg PUBLIC "-//W3C//DTD SVG 1.1//EN" "http://www.w3.org/Graphics/SVG/1.1/DTD/svg11.dtd">
<svg version="1.1" id="图层_1" xmlns="http://www.w3.org/2000/svg" xmlns:xlink="http://www.w3.org/1999/xlink" x="0px" y="0px"
	 width="107px" height="106.813px" viewBox="0 0 107 106.813" enable-background="new 0 0 107 106.813" xml:space="preserve">
<g>
	<g>
		<path fill-rule="evenodd" clip-rule="evenodd" fill="#D3D5DA" d="M68.5,51.5h-13v-13c0-1.104-0.896-2-2-2s-2,0.896-2,2v13h-13
			c-1.104,0-2,0.896-2,2s0.896,2,2,2h13v13c0,1.104,0.896,2,2,2s2-0.896,2-2v-13h13c1.104,0,2-0.896,2-2S69.604,51.5,68.5,51.5z
			 M53.5,0C23.953,0,0,23.953,0,53.5S23.953,107,53.5,107c29.547,0,53.5-23.953,53.5-53.5S83.047,0,53.5,0z M53.5,103
			C26.162,103,4,80.838,4,53.5S26.162,4,53.5,4S103,26.162,103,53.5S80.838,103,53.5,103z"/>
	</g>
</g>
</svg>
