<svg xmlns="http://www.w3.org/2000/svg" width="63.074" height="38.996" viewBox="0 0 63.074 38.996">
  <defs>
    <style>
      .cls-1 {
        fill: #9ac3e6;
      }

      .cls-2 {
        fill: #fff;
      }

      .cls-3 {
        fill: #f06969;
      }
    </style>
  </defs>
  <g id="资料" transform="translate(-572 -877)">
    <rect id="圆角矩形_19" data-name="圆角矩形 19" class="cls-1" width="51" height="38" rx="4" transform="translate(572 877)"/>
    <path id="椭圆_2" data-name="椭圆 2" class="cls-2" d="M592.451,906.03H579.687a6.121,6.121,0,0,1,3.433-5.122,7.318,7.318,0,0,1-4.72-6.768,7.678,7.678,0,0,1,15.34,0,7.317,7.317,0,0,1-4.721,6.768,6.121,6.121,0,0,1,3.433,5.121h0ZM600.5,906a1.5,1.5,0,0,1,0-3h9a1.5,1.5,0,0,1,0,3Zm0-7a1.5,1.5,0,0,1,0-3h16a1.5,1.5,0,1,1,0,3Zm0-8a1.5,1.5,0,0,1,0-3h16a1.5,1.5,0,1,1,0,3Z"/>
    <path id="圆角矩形_20_拷贝_2" data-name="圆角矩形 20 拷贝 2" class="cls-3" d="M632.188,916H615.813l-.016-.049a2.334,2.334,0,0,1-.423.049h-.081a2.408,2.408,0,0,1-2.367-2.387,2.373,2.373,0,0,1,.365-1.254l-.107-.053,8.775-14.849.107-.122c.492-.565,1.236-1.418,1.934-1.418.913,0,1.552.846,1.976,1.406l8.9,15.055-.1.1a2.341,2.341,0,0,1,.3,1.136A2.408,2.408,0,0,1,632.707,916h-.081a2.349,2.349,0,0,1-.407-.047l-.032.047Z"/>
    <path id="圆角矩形_20_拷贝_3" data-name="圆角矩形 20 拷贝 3" class="cls-2" d="M623,912a1,1,0,1,1,1,1A1,1,0,0,1,623,912Zm-.116-2.01a.884.884,0,0,1-.884-.884V904c0-.008,0-.017,0-.025s0-.016,0-.024a2,2,0,0,1,4,0c0,.008,0,.016,0,.024s0,.017,0,.025v5.107a.884.884,0,0,1-.885.884Z"/>
  </g>
</svg>
