<?xml version="1.0" encoding="utf-8"?>
<!-- Generator: Adobe Illustrator 16.0.0, SVG Export Plug-In . SVG Version: 6.00 Build 0)  -->
<!DOCTYPE svg PUBLIC "-//W3C//DTD SVG 1.1//EN" "http://www.w3.org/Graphics/SVG/1.1/DTD/svg11.dtd">
<svg version="1.1" id="图层_1" xmlns="http://www.w3.org/2000/svg" xmlns:xlink="http://www.w3.org/1999/xlink" x="0px" y="0px"
	 width="82.974px" height="23.93px" viewBox="-9 5.07 82.974 23.93" enable-background="new -9 5.07 82.974 23.93"
	 xml:space="preserve">
<g>
	<g>
		<path fill="#00CD91" d="M4.688,5.07l-0.372,2H1.624l0.372-2h-3.938l-0.372,2h-3.003l-0.604,3.245h3.003l-1.393,7.474L-9,23.198
			h3.683l-0.366,1.967c-0.049,0.263-0.179,0.503-0.39,0.722c-0.244,0.196-0.479,0.295-0.706,0.295h-0.482L-8.863,29h3.309
			c0.356,0,0.767-0.087,1.23-0.262c0.37-0.175,0.747-0.438,1.131-0.787c0.178-0.152,0.337-0.328,0.477-0.524
			c0.141-0.196,0.275-0.394,0.406-0.59c0.254-0.459,0.426-0.929,0.516-1.409l1.276-6.852l3.441-4.032L0.964,25.066l-1.585,3.639
			h3.909l1.589-3.508l1.471-7.899h6.657c-0.19,0.415-0.364,0.819-0.522,1.213c-0.159,0.394-0.335,0.754-0.527,1.081
			c-0.175,0.328-0.366,0.646-0.574,0.951c-0.208,0.307-0.421,0.59-0.64,0.853c-0.202-0.437-0.36-0.935-0.474-1.491
			c-0.113-0.558-0.196-1.152-0.248-1.787H6.62c-0.033,1.094,0.034,2.098,0.203,3.016c0.199,0.962,0.514,1.857,0.944,2.688
			C7.6,23.908,7.418,24.002,7.22,24.1c-0.197,0.099-0.397,0.181-0.598,0.246c-0.187,0.088-0.387,0.175-0.602,0.262
			c-0.215,0.088-0.441,0.164-0.68,0.23L4.62,28.705c1.829-0.393,3.555-1.136,5.174-2.229c1.194,1.093,2.643,1.836,4.345,2.229
			l0.721-3.867c-0.215-0.066-0.408-0.143-0.581-0.23l-0.518-0.262c-0.177-0.065-0.341-0.147-0.492-0.246
			c-0.152-0.098-0.305-0.191-0.458-0.278c0.447-0.48,0.848-0.978,1.198-1.491s0.69-1.044,1.019-1.59
			c0.612-1.158,1.024-2.306,1.236-3.442l0.592-3.18H6.94l1.08-5.802h5.978l-0.195,1.049c-0.049,0.262-0.188,0.502-0.417,0.721
			c-0.188,0.197-0.405,0.295-0.65,0.295h-2.691l-1.047,2.885h4.9c0.473,0,0.887-0.098,1.245-0.294
			c0.224-0.087,0.422-0.19,0.596-0.31c0.174-0.12,0.359-0.256,0.558-0.408c0.356-0.393,0.635-0.773,0.836-1.143
			c0.239-0.37,0.411-0.838,0.517-1.404l0.863-4.637H4.688z M3.18,13.168H0.488l0.531-2.853h2.691L3.18,13.168z M20.266,17.102
			h20.879l6.031-10.785H27.431l0.701-1.18h-4.249l-2.524,4.425h19.009l-2.793,4.655H29.84l-1.837-3.672h-4.59l1.889,3.704
			l-3.422-0.032L20.266,17.102z M18.458,28.936h20.341c0.227,0,0.446-0.018,0.661-0.05c0.213-0.032,0.415-0.104,0.605-0.213
			c0.41-0.175,0.797-0.427,1.16-0.754c0.307-0.328,0.604-0.71,0.894-1.147c0.21-0.415,0.365-0.896,0.468-1.442l1.264-6.786H20.394
			L18.458,28.936z M23.728,21.789h15.581l-0.538,2.885c-0.049,0.262-0.178,0.502-0.389,0.721c-0.188,0.197-0.414,0.295-0.679,0.295
			H23.001L23.728,21.789z M63.492,7.234l0.366-1.967h-3.796l-0.366,1.967h-10.51l-0.471,2.523l-0.098,0.525L46.47,21.821
			l-0.514,2.754l-0.055,0.295h10.51l-0.727,3.901h3.797l0.727-3.901h7.762c0.755,0,1.454-0.306,2.098-0.918
			c0.643-0.611,1.045-1.354,1.208-2.229l2.131-11.439l0.098-0.525l0.47-2.523H63.492z M56.979,21.821h-6.714l2.148-11.538h6.715
			L56.979,21.821z M67.596,21.101c-0.037,0.196-0.13,0.366-0.279,0.508c-0.149,0.143-0.309,0.213-0.479,0.213h-6.063l2.149-11.538
			h6.686L67.596,21.101z"/>
	</g>
</g>
</svg>
