<?xml version="1.0" encoding="utf-8"?>
<!-- Generator: Adobe Illustrator 16.0.0, SVG Export Plug-In . SVG Version: 6.00 Build 0)  -->
<!DOCTYPE svg PUBLIC "-//W3C//DTD SVG 1.1//EN" "http://www.w3.org/Graphics/SVG/1.1/DTD/svg11.dtd">
<svg version="1.1" id="图层_1" xmlns="http://www.w3.org/2000/svg" xmlns:xlink="http://www.w3.org/1999/xlink" x="0px" y="0px"
	 width="28px" height="28px" viewBox="0 0 28 28" enable-background="new 0 0 28 28" xml:space="preserve">
<g>
	<g>
		<path fill-rule="evenodd" clip-rule="evenodd" fill="#333333" d="M26.5,16.5c-0.828,0-1.5,0.672-1.5,1.5v4c0,1.657-1.344,3-3,3H6
			c-1.657,0-3-1.343-3-3V6c0-1.657,1.343-3,3-3h4c0.829,0,1.5-0.672,1.5-1.5S10.829,0,10,0H5C2.238,0,0,2.238,0,5v18
			c0,2.762,2.238,5,5,5h18c2.762,0,5-2.238,5-5v-5C28,17.172,27.328,16.5,26.5,16.5z M23,0h-5c-0.828,0-1.5,0.672-1.5,1.5
			S17.172,3,18,3h4c0.722,0,1.376,0.266,1.894,0.691c-0.493-0.123-1.033-0.016-1.419,0.37l-7.07,7.071
			c-0.586,0.585-0.586,1.535,0,2.121s1.535,0.586,2.121,0l7.07-7.071c0.185-0.184,0.289-0.408,0.357-0.642
			C24.977,5.691,25,5.842,25,6v4c0,0.828,0.672,1.5,1.5,1.5S28,10.828,28,10V5C28,2.238,25.762,0,23,0z"/>
	</g>
</g>
</svg>
