<?xml version="1.0" encoding="utf-8"?>
<!-- Generator: Adobe Illustrator 16.0.0, SVG Export Plug-In . SVG Version: 6.00 Build 0)  -->
<!DOCTYPE svg PUBLIC "-//W3C//DTD SVG 1.1//EN" "http://www.w3.org/Graphics/SVG/1.1/DTD/svg11.dtd">
<svg version="1.1" id="图层_1" xmlns="http://www.w3.org/2000/svg" xmlns:xlink="http://www.w3.org/1999/xlink" x="0px" y="0px"
	 width="38px" height="38px" viewBox="-9 -9 38 38" enable-background="new -9 -9 38 38" xml:space="preserve">
<g>
	<g>
		<path fill-rule="evenodd" clip-rule="evenodd" fill="#626262" d="M18-0.811c-3.243-0.932-12.053,0.042-15,6
			c-2.947,5.957,3.46,7.367,7,10c3.459,2.572,0.607,8.248,3,10s10.713,4.309,11-7S21.243,0.122,18-0.811z M-1.5-1.811
			c-1.933,0-3.5,1.567-3.5,3.5s1.567,3.5,3.5,3.5S2,3.623,2,1.689S0.433-1.811-1.5-1.811z M6-0.811c2.049-1.968,8.49-2.146,11-2
			s2.225-2.626,1-3c-8.417-2.569-15,1-15,1C0.858-2.443,3.951,1.158,6-0.811z"/>
	</g>
</g>
</svg>
