<?xml version="1.0" encoding="utf-8"?>
<!-- Generator: Adobe Illustrator 16.0.0, SVG Export Plug-In . SVG Version: 6.00 Build 0)  -->
<!DOCTYPE svg PUBLIC "-//W3C//DTD SVG 1.1//EN" "http://www.w3.org/Graphics/SVG/1.1/DTD/svg11.dtd">
<svg version="1.1" id="图层_1" xmlns="http://www.w3.org/2000/svg" xmlns:xlink="http://www.w3.org/1999/xlink" x="0px" y="0px"
	 width="25px" height="24.994px" viewBox="3.853 50.631 25 24.994" enable-background="new 3.853 50.631 25 24.994"
	 xml:space="preserve">
<path fill-rule="evenodd" clip-rule="evenodd" fill="#FFE718" d="M16.353,50.631c6.903,0,12.5,5.597,12.5,12.5
	s-5.597,12.5-12.5,12.5s-12.5-5.597-12.5-12.5S9.449,50.631,16.353,50.631z"/>
<g>
	<g>
		<path fill-rule="evenodd" clip-rule="evenodd" fill="#FFA918" d="M16.353,52.903c-5.648,0-10.228,4.579-10.228,10.228
			s4.579,10.228,10.228,10.228S26.58,68.779,26.58,63.131S22.001,52.903,16.353,52.903z M16.353,72.222
			c-5.021,0-9.091-4.07-9.091-9.091s4.07-9.091,9.091-9.091s9.091,4.07,9.091,9.091S21.373,72.222,16.353,72.222z"/>
	</g>
</g>
<path fill="#FFA918" d="M17.36,68.599c-0.082-0.549-0.109-0.987-0.109-1.77v-0.933h2.03c0.604,0,0.975,0.027,1.441,0.109v-1.564
	c-0.48,0.082-0.823,0.11-1.441,0.11h-2.03v-0.398l0.453-0.714h1.604c0.604,0,0.975,0.028,1.441,0.11v-1.564
	c-0.453,0.082-0.823,0.11-1.441,0.11h-0.768l1.894-3.02c0.246-0.397,0.795-1.18,0.974-1.413h-2.374
	c-0.109,0.371-0.274,0.714-0.658,1.358l-2.031,3.472l-2.03-3.485c-0.384-0.645-0.535-0.946-0.658-1.345h-2.36
	c0.206,0.261,0.563,0.796,0.96,1.413l1.907,3.02h-0.767c-0.632,0-0.988-0.028-1.441-0.11v1.564c0.467-0.082,0.81-0.11,1.441-0.11
	h1.591l0.452,0.7v0.412h-2.071c-0.632,0-0.961-0.028-1.441-0.11v1.564c0.467-0.082,0.823-0.109,1.441-0.109h2.071v0.933
	c0,0.672-0.041,1.234-0.109,1.77H17.36z"/>
</svg>
