<?xml version="1.0" encoding="utf-8"?>
<!-- Generator: Adobe Illustrator 16.0.0, SVG Export Plug-In . SVG Version: 6.00 Build 0)  -->
<!DOCTYPE svg PUBLIC "-//W3C//DTD SVG 1.1//EN" "http://www.w3.org/Graphics/SVG/1.1/DTD/svg11.dtd">
<svg version="1.1" id="图层_1" xmlns="http://www.w3.org/2000/svg" xmlns:xlink="http://www.w3.org/1999/xlink" x="0px" y="0px"
	 width="82.974px" height="23.93px" viewBox="-9 5.07 82.974 23.93" enable-background="new -9 5.07 82.974 23.93"
	 xml:space="preserve">
<g>
	<g>
		<path fill="#00CD91" d="M16.977,5.218h-3.711l-0.61,3.277H8.264l0.611-3.277H5.191l-0.61,3.277H2.145l-0.579,3.114h2.436
			l-0.897,4.819h-3.116l-0.58,3.113h3.116l-0.22,1.181l-2.395,4.491h3.683l2.395-4.491l0.22-1.181h4.392l-1.057,5.672h3.711
			l1.057-5.672h3.031l0.58-3.113h-3.031l0.897-4.819h2.38l0.58-3.114h-2.38L16.977,5.218z M11.178,16.429H6.786l0.897-4.819h4.392
			L11.178,16.429z M0.317,9.184l-1.238-3.999h-3.74l1.238,3.999H0.317z M-3.47,22.82l2.311-5.408h-1.926l3.757-7.245h-6.289
			l-0.562,3.016h2.465l-3.733,7.114l-0.081,0.131h2.38l-3.927,8.457h3.031l0.662-1.573l0.84,1.573H15.6l0.556-2.982H-1.976
			L-3.47,22.82z M26.342,10.757l3.231-5.638h-4.137l-4.534,7.919h2.21l-3.265,5.664h2.38L20.318,28.95h3.796l2.437-13.079h-0.964
			l2.936-5.114H26.342z M29.706,11.708l-0.604,3.245h7.79l-1.85,9.933c-0.058,0.307-0.197,0.547-0.418,0.722
			c-0.211,0.218-0.439,0.327-0.685,0.327h-1.784l-1.853,2.95h4.957c0.472,0,0.893-0.076,1.261-0.229
			c0.456-0.218,0.845-0.48,1.167-0.786c0.188-0.197,0.354-0.383,0.5-0.558c0.146-0.175,0.279-0.382,0.399-0.623
			c0.251-0.437,0.424-0.906,0.518-1.409l1.923-10.326h4.477l0.604-3.245H29.706z M45.636,5.119H32.689l-0.604,3.245h12.946
			L45.636,5.119z M63.567,7.25l0.366-1.967h-3.796L59.771,7.25h-10.51l-0.471,2.523l-0.098,0.525l-2.148,11.538l-0.514,2.754
			l-0.055,0.295h10.51l-0.726,3.901h3.796l0.727-3.901h7.762c0.755,0,1.454-0.306,2.098-0.918c0.643-0.611,1.045-1.354,1.208-2.229
			l2.131-11.439l0.098-0.525l0.47-2.523H63.567z M57.055,21.837h-6.714l2.148-11.538h6.715L57.055,21.837z M67.671,21.116
			c-0.037,0.196-0.13,0.366-0.279,0.508c-0.149,0.143-0.309,0.213-0.479,0.213h-6.063L63,10.299h6.686L67.671,21.116z"/>
	</g>
</g>
</svg>
