<?xml version="1.0" encoding="utf-8"?>
<!-- Generator: Adobe Illustrator 16.0.0, SVG Export Plug-In . SVG Version: 6.00 Build 0)  -->
<!DOCTYPE svg PUBLIC "-//W3C//DTD SVG 1.1//EN" "http://www.w3.org/Graphics/SVG/1.1/DTD/svg11.dtd">
<svg version="1.1" id="图层_1" xmlns="http://www.w3.org/2000/svg" xmlns:xlink="http://www.w3.org/1999/xlink" x="0px" y="0px"
	 width="17px" height="18px" viewBox="0 0 17 18" enable-background="new 0 0 17 18" xml:space="preserve">
<g>
	<g>
		<path fill-rule="evenodd" clip-rule="evenodd" fill="#bec7ca" d="M16,0h-4c-0.553,0-1,0.448-1,1s0.447,1,1,1h1.617l-3.009,3.009
			C9.553,4.373,8.322,4,7,4c-3.866,0-7,3.134-7,7s3.134,7,7,7s7-3.134,7-7c0-1.819-0.7-3.471-1.838-4.716L15,3.445V5
			c0,0.553,0.447,1,1,1s1-0.447,1-1V1C17,0.448,16.553,0,16,0z M7,16c-2.762,0-5-2.238-5-5s2.238-5,5-5s5,2.238,5,5S9.762,16,7,16z"
			/>
	</g>
</g>
</svg>
