<?xml version="1.0" encoding="utf-8"?>
<!-- Generator: Adobe Illustrator 16.0.0, SVG Export Plug-In . SVG Version: 6.00 Build 0)  -->
<!DOCTYPE svg PUBLIC "-//W3C//DTD SVG 1.1//EN" "http://www.w3.org/Graphics/SVG/1.1/DTD/svg11.dtd">
<svg version="1.1" id="图层_1" xmlns="http://www.w3.org/2000/svg" xmlns:xlink="http://www.w3.org/1999/xlink" x="0px" y="0px"
	 width="17px" height="18px" viewBox="0 0 17 18" enable-background="new 0 0 17 18" xml:space="preserve">
<g>
	<g>
		<path fill-rule="evenodd" clip-rule="evenodd" fill="#F88B9D" d="M10,0C6.134,0,3,3.134,3,7c0,1.94,0.79,3.695,2.065,4.963
			l-1.126,1.121l-1.112-1.112c-0.391-0.391-1.024-0.391-1.415,0c-0.39,0.39-0.39,1.023,0,1.414l1.109,1.108l-1.037,1.032
			c-0.434,0.433-0.489,1.079-0.121,1.444c0.368,0.367,1.018,0.313,1.452-0.119l1.034-1.029l1.099,1.099
			c0.391,0.391,1.024,0.391,1.415,0c0.39-0.391,0.39-1.023,0-1.414l-1.096-1.096l1.313-1.307C7.592,13.673,8.757,14,10,14
			c3.865,0,7-3.135,7-7C17,3.134,13.865,0,10,0z M10,12c-2.761,0-5-2.238-5-5s2.239-5,5-5s5,2.238,5,5S12.761,12,10,12z"/>
	</g>
</g>
</svg>
