<?xml version="1.0" standalone="no"?><!DOCTYPE svg PUBLIC "-//W3C//DTD SVG 1.1//EN" "http://www.w3.org/Graphics/SVG/1.1/DTD/svg11.dtd">
<svg t="1523154380796" class="icon" style="" viewBox="0 0 1024 1024" version="1.1" xmlns="http://www.w3.org/2000/svg" p-id="2616" xmlns:xlink="http://www.w3.org/1999/xlink" width="200" height="200">
<path fill="#fff" d="M149.43 105.807c51.428-35.741 155.251-41.497 165.85-37.415 6.026 2.338 52.53 93.609 68.857 136.518 24.756 65.033 22.953 136.503 22.953 136.503s9.327-2.733-22.953 22.749c-38.82 30.614-64.302 14.864-68.857 45.502-4.556 30.622 32.729 130.363 114.762 204.742 82.026 74.392 155.702 112.1 206.565 113.746 25.843 0.845 22.393-61.513 45.905-90.99 6.187-7.75 94.236-4.13 183.616 45.503 57.568 31.971 86.011 75.698 91.806 91 11.33 29.91-85.224 145.627-146.15 169.331-53.441 20.79-133.199 15.33-221.078-10.086-114.345-33.042-402.313-198.187-486.85-472.68-73.186-206.814-31.43-276.544 0-315.034 17.392-21.298 31.456-29.561 45.574-39.39z" p-id="2617"></path></svg>