<svg xmlns="http://www.w3.org/2000/svg" width="26" height="26" viewBox="0 0 26 26">
  <defs>
    <style>
      .cls-1 {
        fill: #f06969;
      }
    </style>
  </defs>
  <path id="减去_1" data-name="减去 1" class="cls-1" d="M-4642-4658a12.913,12.913,0,0,1-9.192-3.808A12.914,12.914,0,0,1-4655-4671a12.914,12.914,0,0,1,3.808-9.192A12.913,12.913,0,0,1-4642-4684a12.915,12.915,0,0,1,9.192,3.808A12.914,12.914,0,0,1-4629-4671a12.914,12.914,0,0,1-3.808,9.192A12.915,12.915,0,0,1-4642-4658Zm-1-8v3h3v-3Zm0-12v10h3v-10Z" transform="translate(4655 4684)"/>
</svg>
