<?xml version="1.0" encoding="utf-8"?>
<!-- Generator: Adobe Illustrator 16.0.0, SVG Export Plug-In . SVG Version: 6.00 Build 0)  -->
<!DOCTYPE svg PUBLIC "-//W3C//DTD SVG 1.1//EN" "http://www.w3.org/Graphics/SVG/1.1/DTD/svg11.dtd">
<svg version="1.1" id="图层_1" xmlns="http://www.w3.org/2000/svg" xmlns:xlink="http://www.w3.org/1999/xlink" x="0px" y="0px"
	 width="33.998px" height="34px" viewBox="-5.272 50.631 33.998 34" enable-background="new -5.272 50.631 33.998 34"
	 xml:space="preserve">
<g>
	<g>
		<path fill-rule="evenodd" clip-rule="evenodd" fill="#FEDD44" d="M16.409,62.952H14.38c-0.094,0.317-0.234,0.61-0.563,1.163
			l-1.736,2.973l-1.736-2.984c-0.329-0.553-0.458-0.811-0.563-1.151H7.763c0.176,0.223,0.482,0.682,0.822,1.21l1.631,2.585H9.558
			c-0.539,0-0.844-0.023-1.23-0.094v1.339c0.398-0.07,0.691-0.094,1.23-0.094h1.361l0.387,0.6v0.352H9.534
			c-0.539,0-0.82-0.023-1.23-0.094v1.34c0.398-0.07,0.703-0.094,1.23-0.094h1.771v0.799c0,0.575-0.035,1.057-0.094,1.516h1.736
			c-0.07-0.471-0.094-0.847-0.094-1.516v-0.799h1.736c0.516,0,0.833,0.023,1.232,0.094v-1.34c-0.411,0.07-0.705,0.094-1.232,0.094
			h-1.736v-0.34l0.387-0.611h1.373c0.516,0,0.833,0.023,1.232,0.094v-1.339c-0.388,0.07-0.704,0.094-1.232,0.094h-0.656l1.618-2.585
			C15.788,63.821,16.257,63.151,16.409,62.952z M11.727,50.631c-9.389,0-17,7.611-17,17s7.611,17,17,17s17-7.611,17-17
			S21.115,50.631,11.727,50.631z M11.727,76.631c-4.971,0-9-4.029-9-9s4.029-9,9-9s9,4.029,9,9S16.697,76.631,11.727,76.631z"/>
	</g>
</g>
</svg>
