<?xml version="1.0" encoding="utf-8"?>
<!-- Generator: Adobe Illustrator 23.0.0, SVG Export Plug-In . SVG Version: 6.00 Build 0)  -->
<svg version="1.1" id="图层_1" xmlns="http://www.w3.org/2000/svg" xmlns:xlink="http://www.w3.org/1999/xlink" x="0px" y="0px"
	 viewBox="0 0 40 38" style="enable-background:new 0 0 40 38;" xml:space="preserve">
<style type="text/css">
	.st0{fill-rule:evenodd;clip-rule:evenodd;fill:#F88B9D;}
	.st1{fill-rule:evenodd;clip-rule:evenodd;fill:#FFFFFF;}
</style>
<path class="st0" d="M20.5,4.5c7.73,0,14,6.27,14,14s-6.27,14-14,14s-14-6.27-14-14S12.77,4.5,20.5,4.5z"/>
<g>
	<g>
		<path class="st1" d="M21.77,10.59c-3.67,0-6.64,2.92-6.64,6.52c0,1.82,0.77,3.47,2,4.65l-0.93,0.92l-0.9-0.9
			c-0.34-0.34-0.9-0.34-1.24,0c-0.34,0.35-0.34,0.9,0,1.25l0.89,0.9l-0.76,0.76c-0.44,0.44-0.49,1.09-0.12,1.47
			c0.37,0.37,1.03,0.32,1.47-0.12l0.75-0.75l0.88,0.88c0.34,0.34,0.9,0.34,1.24,0c0.34-0.35,0.34-0.9,0-1.25l-0.87-0.88l1.15-1.15
			c0.92,0.47,1.96,0.74,3.08,0.74c3.67,0,6.64-2.92,6.64-6.52S25.43,10.59,21.77,10.59z M21.72,21.53c-2.35,0-4.25-1.9-4.25-4.25
			c0-2.35,1.9-4.25,4.25-4.25c2.35,0,4.25,1.9,4.25,4.25C25.97,19.63,24.07,21.53,21.72,21.53z M20.5,4.5c-7.73,0-14,6.27-14,14
			s6.27,14,14,14s14-6.27,14-14S28.23,4.5,20.5,4.5z M20.5,30.5c-6.63,0-12-5.37-12-12c0-6.63,5.37-12,12-12s12,5.37,12,12
			C32.5,25.13,27.13,30.5,20.5,30.5z"/>
	</g>
</g>
</svg>
