<?xml version="1.0" encoding="utf-8"?>
<!-- Generator: Adobe Illustrator 16.0.0, SVG Export Plug-In . SVG Version: 6.00 Build 0)  -->
<!DOCTYPE svg PUBLIC "-//W3C//DTD SVG 1.1//EN" "http://www.w3.org/Graphics/SVG/1.1/DTD/svg11.dtd">
<svg version="1.1" id="图层_1" xmlns="http://www.w3.org/2000/svg" xmlns:xlink="http://www.w3.org/1999/xlink" x="0px" y="0px"
	 width="26px" height="26px" viewBox="0 0 26 26" enable-background="new 0 0 26 26" xml:space="preserve">
<g>
	<g>
		<path fill-rule="evenodd" clip-rule="evenodd" fill="#626262" d="M13.208,2.75c-5.799,0-10.5,4.701-10.5,10.5
			s4.701,10.5,10.5,10.5s10.5-4.701,10.5-10.5S19.007,2.75,13.208,2.75z M17.534,17.211c-0.336,0.532-1.054,0.7-1.604,0.376
			l-3.648-2.741c-0.345-0.203-0.52-0.553-0.537-0.915c-0.012-0.061-0.037-0.117-0.037-0.181v-6c0-0.553,0.448-1,1-1s1,0.447,1,1
			v5.329l3.437,2.582C17.695,15.986,17.869,16.68,17.534,17.211z"/>
	</g>
</g>
</svg>
