<?xml version="1.0" encoding="utf-8"?>
<!-- Generator: Adobe Illustrator 16.0.0, SVG Export Plug-In . SVG Version: 6.00 Build 0)  -->
<!DOCTYPE svg PUBLIC "-//W3C//DTD SVG 1.1//EN" "http://www.w3.org/Graphics/SVG/1.1/DTD/svg11.dtd">
<svg version="1.1" id="图层_1" xmlns="http://www.w3.org/2000/svg" xmlns:xlink="http://www.w3.org/1999/xlink" x="0px" y="0px"
	 width="81px" height="81px" viewBox="0 0 81 81" enable-background="new 0 0 81 81" xml:space="preserve">
<linearGradient id="SVGID_1_" gradientUnits="userSpaceOnUse" x1="192.1055" y1="-178.4282" x2="145.3861" y2="-215.4732" gradientTransform="matrix(1 0 0 -1 -123.3198 -160.3555)">
	<stop  offset="0" style="stop-color:#39F7BF"/>
	<stop  offset="1" style="stop-color:#00CD91"/>
</linearGradient>
<path fill="url(#SVGID_1_)" d="M40.5,0C62.867,0,81,18.132,81,40.5C81,62.867,62.867,81,40.5,81S0,62.867,0,40.5
	C0,18.132,18.133,0,40.5,0z"/>
<path fill="#FFFFFF" d="M58.5,40.501c0,1.57-1.274,2.845-2.845,2.845H25.345c-1.571,0-2.845-1.274-2.845-2.845l0,0
	c0-1.572,1.273-2.846,2.845-2.846h30.311C57.226,37.655,58.5,38.929,58.5,40.501L58.5,40.501z"/>
<path fill="#FFFFFF" d="M40.5,22.5c1.57,0,2.844,1.274,2.844,2.845v30.311c0,1.57-1.274,2.845-2.844,2.845l0,0
	c-1.572,0-2.846-1.274-2.846-2.845V25.345C37.654,23.774,38.929,22.5,40.5,22.5L40.5,22.5z"/>
</svg>
