<?xml version="1.0" encoding="utf-8"?>
<!-- Generator: Adobe Illustrator 23.0.0, SVG Export Plug-In . SVG Version: 6.00 Build 0)  -->
<svg version="1.1" id="图层_1" xmlns="http://www.w3.org/2000/svg" xmlns:xlink="http://www.w3.org/1999/xlink" x="0px" y="0px"
	 viewBox="0 0 38 42.98" style="enable-background:new 0 0 38 42.98;" xml:space="preserve">
<style type="text/css">
	.st0{fill-rule:evenodd;clip-rule:evenodd;fill:#626262;}
</style>
<g>
	<g>
		<path class="st0" d="M27.77,10.54L27.77,10.54c1.2-2.12,0.28-4.96-2.07-6.34c-2.35-1.38-5.23-0.78-6.43,1.35L9.83,0L3.35,26.95
			l4.72,2.77v0l4.27,2.51l5.17,3.04l19.69-19.18L27.77,10.54z M9.32,27.03l-2.1-1.05l5-20l5.4,3.13L9.32,27.03z M17.22,30.98
			l-2.53-1.27l10.9-15.99l5.63,3.26L17.22,30.98z M1.72,29.83c-3.01,5.31-1.19,9.55,2.72,11.85c3.91,2.3,8.43,1.78,11.44-3.53
			l1.09-1.92L2.81,27.91L1.72,29.83z"/>
	</g>
</g>
</svg>
